<svg width="21" height="20" viewBox="0 0 21 20" fill="none" xmlns="http://www.w3.org/2000/svg">
<path d="M8.36373 19C8.99628 19 9.50907 18.4963 9.50907 17.875C9.50907 17.2537 8.99628 16.75 8.36373 16.75C7.73117 16.75 7.21838 17.2537 7.21838 17.875C7.21838 18.4963 7.73117 19 8.36373 19Z" stroke="white" stroke-width="2" stroke-linecap="round" stroke-linejoin="round"/>
<path d="M18.2909 19C18.9235 19 19.4363 18.4963 19.4363 17.875C19.4363 17.2537 18.9235 16.75 18.2909 16.75C17.6582 16.75 17.1454 17.2537 17.1454 17.875C17.1454 18.4963 17.6582 19 18.2909 19Z" stroke="white" stroke-width="2" stroke-linecap="round" stroke-linejoin="round"/>
<path d="M1 1H4.33225L6.56486 11.7117C6.64104 12.08 6.84969 12.4109 7.15429 12.6464C7.45889 12.8818 7.84003 13.0069 8.23099 12.9997H16.3284C16.7193 13.0069 17.1005 12.8818 17.4051 12.6464C17.7097 12.4109 17.9183 12.08 17.9945 11.7117L19.3274 4.9999H5.16532" stroke="white" stroke-width="2" stroke-linecap="round" stroke-linejoin="round"/>
</svg>
